{"title":"Captain Corelli's Mandolin (Nicholas Cage)(2001)[DVD-RIP-DIVX]","uid":6278927,"size":1386631115,"categoryP":"video","categoryS":"movies","magnet":"?xt=urn:btih:f94b514380d20067a94422eaca724f68279ec289&amp;dn=Captain+Corelli%5C%27s+Mandolin+%28Nicholas+Cage%29%282001%29%5BDVD-RIP-DIVX%5D&amp;tr=udp%3A%2F%2Ftracker.openbittorrent.com%3A80&amp;tr=udp%3A%2F%2Fopen.demonii.com%3A1337&amp;tr=udp%3A%2F%2Ftracker.coppersurfer.tk%3A6969&amp;tr=udp%3A%2F%2Fexodus.desync.com%3A6969","seeders":2,"leechers":0,"uploader":"seanprince2","files":-1,"time":1301365116,"description":"\nCaptain Corelli's Mandolin (Nicholas Cage)(2001)[DVD-RIP-DIVX]\n\n\nPlot:\n\nIn 1941, Italy allies with Germany and ruthlessly conquers the much weaker country of Greece. On a remote Greek island, an Italian artillery garrison is established to maintain order. One Italian officer, Captain Corelli, adopts an attitude of mutual co-existence with the Greeks and engages in such activities as music festivals and courting the daughter of a local doctor. In 1943, however, after Italy surrenders to the Allies and changes sides in the war, Captain Corelli must defend the Greek island against a German invasion.\n\nGeneral\nComplete name Captain Corelli's Mandolin.divx\nFormat : DivX\nFormat/Info : Hack of AVI\nFile size : 1.29 GiB\nDuration : 2h 3mn\nOverall bit rate : 1 496 Kbps\n\nVideo\nID : 0\nFormat : MPEG-4 Visual\nFormat settings, BVOP : Yes\nFormat settings, QPel : No\nFormat settings, GMC : No warppoints\nFormat settings, Matrix : Default (H.263)\nMuxing mode : Packed bitstream\nCodec ID : DX50\nCodec ID/Hint : DivX 5\nDuration : 2h 3mn\nBit rate : 1 100 Kbps\nWidth : 672 pixels\nHeight : 288 pixels\nDisplay aspect ratio : 2.35\nFrame rate : 25.000 fps\nResolution : 24 bits\nColorimetry : 4:2:0\nScan type : Progressive\nBits/(Pixel*Frame) : 0.227\nStream size : 972 MiB (74%)\nTitle : Video\nWriting library : DivX 6.8.2 (UTC 2008-05-17)\n\nAudio\nID : 1\nFormat : AC-3\nFormat/Info : Audio Coding 3\nCodec ID : 2000\nDuration : 2h 3mn\nBit rate mode : Constant\nBit rate : 384 Kbps\nChannel(s) : 6 channels\nChannel positions : Front: L C R, Surround: L R, LFE\nSampling rate : 48.0 KHz\nStream size : 339 MiB (26%)\nAlignment : Split accross interleaves\nInterleave, duration : 40 ms (1.00 video frame)\nInterleave, preload duration : 500 ms\nTitle : Audio\n\nText #1\nFormat : DivX Subtitle\nCodec ID : DXSB\nCodec ID/Info : Subtitle in AVI from DivX networks\nWidth : 640 pixels\nHeight : 480 pixels\nResolution : 4 bits\nTitle : Subtitle\n\n\n\n\nIMDB Rating =\n\n5.8/10 X ","torrent":{"xt":"urn:btih:f94b514380d20067a94422eaca724f68279ec289","amp;dn":"Captain+Corelli%5C%27s+Mandolin+%28Nicholas+Cage%29%282001%29%5BDVD-RIP-DIVX%5D","amp;tr":["udp%3A%2F%2Ftracker.openbittorrent.com%3A80","udp%3A%2F%2Fopen.demonii.com%3A1337","udp%3A%2F%2Ftracker.coppersurfer.tk%3A6969","udp%3A%2F%2Fexodus.desync.com%3A6969"],"infoHash":"f94b514380d20067a94422eaca724f68279ec289","infoHashBuffer":{"type":"Buffer","data":[249,75,81,67,128,210,0,103,169,68,34,234,202,114,79,104,39,158,194,137]},"announce":[],"urlList":[]}}